<svg width="86" height="87" viewBox="0 0 86 87" fill="none" xmlns="http://www.w3.org/2000/svg">
<path d="M37.9833 58.725L63.2458 33.1688L58.2292 28.0938L37.9833 48.575L27.7708 38.2438L22.7542 43.3187L37.9833 58.725ZM17.9167 76.125C15.9458 76.125 14.2587 75.4151 12.8552 73.9953C11.4517 72.5755 10.75 70.8688 10.75 68.875V18.125C10.75 16.1312 11.4517 14.4245 12.8552 13.0047C14.2587 11.5849 15.9458 10.875 17.9167 10.875H68.0833C70.0542 10.875 71.7413 11.5849 73.1448 13.0047C74.5483 14.4245 75.25 16.1312 75.25 18.125V68.875C75.25 70.8688 74.5483 72.5755 73.1448 73.9953C71.7413 75.4151 70.0542 76.125 68.0833 76.125H17.9167ZM17.9167 68.875H68.0833V18.125H17.9167V68.875Z" fill="white"/>
</svg>
